<svg xmlns="http://www.w3.org/2000/svg" viewBox="0 0 500 500"><defs><style>.cls-1{fill:#01baef;}.cls-2,.cls-4,.cls-5,.cls-6{fill:none;}.cls-2,.cls-3,.cls-4,.cls-5,.cls-7{stroke:#0b4f6c;}.cls-2,.cls-3,.cls-4,.cls-5,.cls-6,.cls-7{stroke-miterlimit:10;}.cls-2{stroke-width:6px;}.cls-3,.cls-7{fill:#0b4f6c;}.cls-3,.cls-4,.cls-6{stroke-width:5px;}.cls-5{stroke-width:18px;}.cls-6{stroke:#01baef;}.cls-7{font-size:103.14px;font-family:Consolas;}</style></defs><title>Mesa de trabajo 2</title><g id="Capa_2" data-name="Capa 2"><circle class="cls-1" cx="250" cy="296.27" r="183.36"/><path class="cls-2" d="M263.27,200.74s-73.22-12.1-124.15,77c0,0-29.92,50.94,1.91,112.06,0,0,39.47,67.49,107,60.48,0,0,51.57,7.64,90.41-15.91S383,347.81,383,347.81s27.37-152.17-123.52-157.9"/><circle class="cls-2" cx="283.65" cy="369.46" r="65.58"/><path class="cls-3" d="M266.34,267.39c-.11,4.6-.31,9.44-.65,14.41a13.94,13.94,0,0,1,.2,2.34c0,9.14-8.66,16.55-19.34,16.55s-19.33-7.41-19.33-16.55v-.32h-.34a182.71,182.71,0,0,1,0-51.57h.34c.2-9,8.78-16.23,19.33-16.23s19.34,7.41,19.34,16.55a13.1,13.1,0,0,1-.17,2.09h0c.2,3,.52,8.76.67,16.15l-25.17,8.94Z"/><path class="cls-4" d="M353.36,295.92s-21.64-18.46-52.21-17.19c0,0,17.19-24.83,52.21-16.55"/><path class="cls-4" d="M340,271.73s-21-1.91-38.84,6.36"/><path class="cls-4" d="M303.18,196.76l51.46-25.63s33.74-14.64,22.92,18.46-15.16,49.08-15.16,49.08"/><line class="cls-5" x1="120.34" y1="253.26" x2="286.51" y2="166.67"/><path class="cls-4" d="M140.46,149.21C174.33,197.44,168.82,228,168.82,228"/><path class="cls-6" d="M216.46,116c-11-23.33-19.45-48.34-17.17-67.08C205,1.77,169.36,27.24,169.36,27.24S136.89,44.43,107.6,61.62,94.23,93.46,94.23,93.46l17.83,21.64a288.71,288.71,0,0,1,28.4,34.11"/><path class="cls-4" d="M255.64,182.76S233.12,151.29,216.46,116"/><path class="cls-4" d="M275.05,323.3s2.55,39.47-12.1,78.31"/><path class="cls-4" d="M306.88,324.57s6.37,33.11-14,80.86"/><text class="cls-7" transform="matrix(2.07, 0.2, -0.1, 1, 226.25, 383.08)">s</text><path class="cls-3" d="M153.93,171.06s47.46-5.67,73.15-34.32c0,0,12.06,24.13,26.51,47.09l-83.59,42S171,193.28,153.93,171.06Z"/></g></svg>